<svg width="89" height="139" viewBox="0 0 89 139" fill="none" xmlns="http://www.w3.org/2000/svg">
<path d="M73.9637 138.279C74.0971 137.969 74.1239 137.967 74.5431 138.117C74.7942 138.202 75.067 138.231 75.1717 138.194C75.2764 138.157 75.4633 137.843 75.621 137.504C75.8224 137.053 75.995 136.875 76.2604 136.823C76.4722 136.776 76.6012 136.71 76.567 136.632C76.5327 136.555 76.6929 136.243 76.9067 135.925C77.237 135.408 77.2856 135.35 77.3883 135.584C77.4593 135.766 77.5957 135.781 77.9073 135.644C78.1945 135.536 78.2892 135.392 78.2232 135.263C78.1547 135.107 78.2301 135.046 78.4687 134.997C78.8145 134.938 79.252 134.411 79.2926 133.975C79.307 133.839 79.4066 133.748 79.4895 133.768C79.5723 133.787 79.621 133.728 79.5624 133.68C79.4428 133.556 80.2874 131.883 80.4943 131.783C80.5721 131.749 80.5865 131.612 80.5498 131.508C80.5131 131.403 80.5274 131.267 80.581 131.262C80.7368 131.193 81.4032 129.348 81.564 129.333C81.6175 129.328 81.6369 129.245 81.6026 129.167C81.5341 129.012 82.0335 127.695 82.216 127.624C82.2939 127.59 82.3133 127.507 82.279 127.429C82.1738 127.169 84.0889 122.182 84.7791 120.011C84.9269 119.565 87.6491 111.044 87.8394 109.892C87.8731 109.672 87.9966 109.256 88.1032 108.949C88.4012 108.083 88.7288 106.081 88.6623 105.654C88.6156 105.443 88.6493 105.223 88.6686 105.14C88.8581 104.853 88.0155 103.634 87.4312 103.742C87.1925 103.791 87.1047 103.718 87.1484 103.606C87.1652 103.497 87.1622 103.173 87.1348 102.878C87.0876 102.369 87.0876 102.369 86.9274 102.681C86.7697 103.02 86.0787 103.435 85.8252 103.324C85.7692 103.302 85.7518 103.114 85.8147 102.919C85.9238 102.639 85.8896 102.561 85.6971 102.525C85.5339 102.513 85.4996 102.435 85.5726 102.347C85.762 102.06 85.5204 101.785 85.1185 101.822C84.9042 101.842 84.7093 101.779 84.675 101.701C84.6408 101.623 84.4825 101.665 84.2806 101.819C84.0277 102.004 83.9741 102.009 84.0931 101.836C84.1636 101.722 84.1804 101.612 84.1025 101.646C84.0246 101.68 84.0172 101.6 84.0583 101.461C84.097 101.295 84.0409 101.274 83.778 101.352C83.3082 101.531 83.5157 101.728 83.725 101.654C83.9319 101.554 83.8446 101.778 83.5891 101.937C83.1561 102.22 83.3809 102.605 82.8083 102.55C82.6183 102.54 82.3822 102.616 82.3093 102.704C82.0613 102.943 81.9804 102.654 82.1525 102.178C82.39 101.535 82.1539 101.611 81.7581 102.296C81.2458 103.181 80.3755 105.45 80.4464 105.633C80.4832 105.738 80.4663 105.847 80.3884 105.881C80.3105 105.916 80.0413 106.508 79.8062 107.178C79.5712 107.849 79.353 108.409 79.2969 108.387C79.1312 108.349 79.4701 108.506 78.1452 100.632C77.0399 94.2496 75.1139 86.5927 72.9464 80.12C71.0042 74.3289 71.3193 74.813 67.1814 65.7401C68.5047 63.4018 69.2744 62.0875 70.3797 59.148C71.0923 57.2176 71.78 55.0193 71.7091 54.8367C71.6381 54.6542 71.6475 54.4641 71.574 54.2548C71.5398 54.1769 71.5884 54.1184 71.6687 54.1109C71.7516 54.1302 71.8706 53.9571 71.9336 53.7621C71.9941 53.5404 72.0353 53.4015 71.9842 53.4332C71.9574 53.4357 72.0347 53.1043 72.185 52.6851C72.3595 52.2366 72.4026 51.8273 72.3123 51.7276C72.1342 51.555 72.2803 50.2175 72.4897 50.144C72.5675 50.1098 72.5993 50.1608 72.6068 50.2412C72.5899 50.3509 72.6217 50.4019 72.646 50.3727C72.8796 50.2699 73.6025 44.664 73.4705 44.4061C73.3703 44.1992 73.0303 46.068 73.1416 44.3555C73.1866 43.6758 73.3151 43.3127 73.4495 43.5974C73.5865 43.909 73.6896 42.9807 73.8112 40.2135C73.946 36.7155 73.9201 35.8533 73.7102 35.6296C73.5003 35.4059 73.4134 34.4683 73.6426 34.6091C74.0742 34.8933 73.4633 17.8198 68.2254 7.95731C66.6881 5.07376 66.373 4.58964 65.0551 3.1988C63.9764 2.05597 64.7251 2.55393 63.4738 1.58922C62.9519 1.20533 62.2667 0.809542 61.906 0.7079C61.6282 0.625593 61.3043 0.628621 61.0096 0.655953C61.0076 0.926325 60.8936 1.1531 60.6942 1.33371C60.7116 1.52123 60.6729 1.68693 60.5831 1.88439C60.732 2.0327 60.8297 2.21273 60.8764 2.42455C60.9642 2.49746 61.0277 2.59967 61.0913 2.70186C61.128 2.80653 61.1647 2.91119 61.1479 3.02083C61.3185 3.11307 61.4649 3.23458 61.5651 3.44143C61.6654 3.64829 61.656 3.83832 61.6173 4.00402C61.788 4.09627 61.9076 4.22026 62.0078 4.42712C62.0446 4.53179 62.052 4.61215 62.0595 4.69252C62.1205 4.76791 62.1815 4.84335 62.2158 4.92123C62.2525 5.0259 62.2599 5.10627 62.2674 5.18664C62.2967 5.21094 62.3527 5.23275 62.4063 5.22778C62.891 5.20984 63.4858 8.12674 64.0072 8.21347C64.1997 8.24966 64.229 8.27401 64.105 8.39359C63.9323 8.57172 64.111 9.04145 64.3571 9.07266C64.4667 9.08951 64.618 9.26461 64.689 9.44716C64.8235 9.7319 64.8017 9.78798 64.6285 9.66894C64.4286 9.55239 64.4311 9.57915 64.5045 9.78849C64.8936 10.7791 66.0104 14.08 66.1553 14.769C66.202 14.9808 66.263 15.0563 66.3359 14.9684C66.4793 14.766 66.7607 15.4694 66.8178 16.0856C66.8427 16.3535 66.8115 16.5995 66.7336 16.6338C66.5778 16.7023 66.7148 17.0138 66.8313 16.8138C66.9504 16.6407 67.2194 17.2102 67.1713 17.5659C67.1376 17.7852 67.1083 17.7608 66.9738 17.4761C66.8076 17.1403 67.116 19.3002 67.3935 20.5444C67.5727 21.3113 67.84 23.6102 67.8262 24.0438C67.8143 24.207 67.8416 24.5016 67.8858 24.6867C68.0601 25.4 68.152 26.3912 68.0697 26.6691C67.9705 27.0565 68.1809 27.5774 68.1428 28.0402C68.1141 28.3131 68.2397 29.085 68.4289 29.9591C68.5123 30.2756 68.2941 30.8362 68.5669 30.8649C68.7594 30.9011 68.892 31.4562 68.7486 31.6587C68.6078 31.8879 68.7428 32.4698 68.4581 32.6042C68.1976 32.7095 68.3352 33.3182 68.4909 33.2497C68.6467 33.1812 68.7787 33.4391 68.5669 33.4858C68.3818 33.53 68.3906 35.6637 68.5638 35.7827C68.7369 35.9018 68.7134 37.6872 68.5234 37.6778C68.3041 37.6441 68.271 38.1605 68.5999 38.2111C68.7924 38.2473 68.7681 38.2766 68.5612 38.3768C68.3543 38.4771 68.2527 38.8377 68.2206 39.9485C68.1123 41.985 68.5161 41.6773 68.4492 42.413C68.421 42.9831 68.1934 43.7337 68.062 43.7729C68.0109 43.8046 67.9965 43.9411 68.0675 44.1236C68.136 44.2794 68.1241 44.4426 68.0194 44.4793C67.9148 44.5161 67.8979 44.6257 67.9907 44.7522C68.0567 44.8812 68.0399 44.9908 67.9327 45.0007C67.828 45.0374 67.714 45.2642 67.6828 45.5103C67.5941 46.302 67.4052 46.887 67.6151 47.1107C67.8249 47.3344 67.7064 47.8047 67.4385 47.8295C67.3314 47.8395 67.2198 48.093 67.1936 48.3927C67.1099 49.238 66.8257 49.6697 66.8124 50.4004C66.7966 51.1044 66.3865 51.926 66.5864 52.0425C66.645 52.0911 66.6524 52.1715 66.5478 52.2083C66.3141 52.311 66.1401 53.0566 66.2478 53.3438C66.3138 53.4728 66.2459 53.6142 66.1705 53.6752C65.859 53.8122 66.0376 54.282 64.8668 57.3897C64.7384 57.7529 64.6343 58.0867 64.666 58.1378C64.7395 58.3472 63.9336 59.854 63.7897 59.7593C63.7044 59.7131 63.3307 59.1804 62.9471 58.5405C61.9944 57.0077 62.0833 57.6749 61.455 56.4363C60.6998 54.9932 60.3297 55.0816 60.2388 54.6848C60.2021 54.5801 60.146 54.5583 60.0974 54.6168C60.0488 54.6754 59.7 54.4105 59.3388 54.0117C58.5846 53.163 58.4601 52.9854 58.7329 53.0141C59.0058 53.0428 58.6227 52.7001 58.3176 52.3231C58.1955 52.1723 58.0591 52.158 57.9594 52.2483C57.7357 52.4582 57.5863 52.0127 57.7078 51.8664C57.8268 51.6932 57.5416 51.5305 56.4237 50.2562C55.5181 49.2324 54.8106 48.5956 54.9525 48.9607C55.021 49.1164 54.9674 49.1214 54.7943 49.0023C54.6211 48.8833 54.5551 48.7544 54.6206 48.5862C54.6979 48.2548 53.5855 47.3312 53.4883 47.4483C53.4397 47.5069 53.3787 47.4315 53.3638 47.2707C53.3489 47.11 53.2293 46.986 53.0928 46.9716C52.9564 46.9573 52.9321 46.9865 53.0735 47.0544C53.1906 47.1517 53.1931 47.1785 53.0567 47.1641C52.947 47.1473 52.8274 47.0233 52.8125 46.8625C52.7951 46.675 52.678 46.5778 52.5123 46.5391C52.3491 46.5273 52.232 46.43 52.2196 46.2961C52.1997 46.0818 51.5775 45.491 51.329 45.433C51.1365 45.3968 49.324 43.9167 49.4287 43.88C49.4798 43.8483 49.3627 43.7511 49.1871 43.6053C49.0114 43.4594 48.8333 43.2868 48.7698 43.1847C48.606 42.8756 45.714 41.1174 43.5944 39.5307C41.8529 38.2332 36.6748 35.7144 36.5334 35.6464C33.9004 34.3506 30.0078 32.8743 27.0738 32.1197C24.9415 31.561 21.5352 30.9582 21.2505 31.0927C21.1458 31.1295 21.063 31.1102 21.0287 31.0323C20.9945 30.9544 20.6631 30.8771 20.2588 30.8875C18.958 30.8461 18.4341 30.7325 18.1226 30.8695C18.0179 30.9062 17.8547 30.8944 17.7644 30.7947C17.5252 30.5467 16.9464 31.0056 16.8754 30.823C16.8069 30.6673 16.296 30.9849 16.0643 30.8173C15.9765 30.7444 15.8693 30.7543 15.7939 30.8153C15.592 30.9691 14.6594 31.1097 14.3815 31.0274C13.9941 30.9282 13.3006 31.3167 13.1785 31.1659C13.12 31.1173 13.0128 31.1273 12.9374 31.1883C12.738 31.3689 11.3643 31.4153 11.2478 31.6152C11.2017 31.7006 11.0702 31.7398 10.9606 31.7229C10.6049 31.6749 8.19305 32.7632 7.76994 33.1537C7.12561 33.7808 6.23413 33.7825 6.36614 34.0404C6.40038 34.1183 6.35176 34.1769 6.2714 34.1843C6.18855 34.165 5.95986 34.3213 5.81652 34.5237C5.45445 34.9896 4.20501 36.3754 3.85481 36.6781C3.70402 36.8002 3.43916 37.149 3.24722 37.4099C2.55979 38.4464 2.04694 39.0343 1.56249 40.5113C1.35176 41.1523 0.865109 41.4406 1.25312 41.8369C1.52155 42.1092 1.57622 42.6986 1.30088 42.643C1.21803 42.6237 1.15259 42.7919 1.11889 43.0112C1.09513 43.3376 1.09759 43.3644 1.20917 43.1109C1.32324 42.8841 1.35003 42.8816 1.46022 43.1956C1.61458 43.6947 1.47374 43.9239 1.44144 43.5757C1.39672 43.0935 1.04898 43.4229 1.0208 43.9929C1.00201 44.3729 0.931583 44.4876 0.787701 44.3929C0.499936 44.2034 0.922738 44.9748 1.0785 44.9063C1.28536 44.806 1.21546 45.2178 1.03787 45.3423C0.884596 45.4376 0.823589 45.3622 0.776922 45.1503C0.720317 44.8314 0.720319 44.8314 0.645466 45.1896C0.529459 45.6867 0.782106 46.6629 0.988961 46.5627C1.22261 46.46 1.47333 47.7066 1.41036 47.9016C1.32805 48.1794 1.69426 48.6318 1.83923 49.3209C1.88838 49.5595 2.04769 50.1121 2.1946 50.5308C2.53261 51.5532 2.54505 51.6871 2.24788 51.6877C2.08715 51.7026 2.04103 51.7879 2.10952 51.9437C2.17801 52.0994 2.26086 52.1187 2.36056 52.0284C2.48208 51.8821 2.67261 52.1887 3.42348 53.8753C4.03985 55.2771 4.26021 55.9051 4.15305 55.9151C3.96802 55.9592 4.16852 56.373 4.94563 57.7599C5.20466 58.2222 5.4463 58.497 5.58273 58.5114C5.77025 58.494 5.77523 58.5476 5.69044 58.7987C5.55952 59.135 5.70145 59.5001 5.90831 59.3998C5.98619 59.3656 6.04475 59.4142 6.02541 59.4971C6.00608 59.5799 6.14748 59.6479 6.31069 59.6597C6.23972 59.4772 6.29274 59.175 6.45844 59.2137C6.5145 59.2355 6.59238 59.2013 6.61172 59.1185C6.63105 59.0356 7.02046 58.8644 6.90445 59.3615C6.8053 59.749 6.67826 59.5446 6.64208 59.7371C6.64208 59.7371 6.62274 59.8199 6.54237 59.8274C6.54237 59.8274 6.5156 59.8299 6.51808 59.8567C6.17285 60.2129 6.63518 59.9539 7.0867 60.4524C7.29659 60.6761 7.27476 60.7322 7.03366 60.7545C6.76577 60.7794 6.77073 60.833 6.96377 61.1663C7.0908 61.3707 7.23719 61.4921 7.2858 61.4336C7.40732 61.2872 7.84199 61.8954 8.09163 62.5477C8.19933 62.835 8.51689 63.3459 8.81708 63.6693C9.59807 64.5155 10.1797 65.5423 10.7041 65.953C10.909 66.1231 11.1214 66.3736 11.1948 66.583C11.3293 66.8677 14.1605 70.0095 15.2878 71.0938C16.0321 71.8353 20.2986 75.3034 20.7228 75.5072C21.1494 75.7378 22.3105 76.6028 22.3497 76.7342C22.3789 76.7585 22.2157 76.7466 21.994 76.6862C21.4651 76.5191 21.7167 76.9011 21.8967 76.8033C21.9746 76.769 22.06 76.8152 22.1235 76.9174C22.1577 76.9952 22.3919 77.1896 22.6454 77.3012C23.0696 77.505 23.0696 77.5051 22.8548 77.2278C22.5154 76.7729 23.1127 77.0958 23.5201 77.4093C24.1909 77.9415 23.3251 77.3463 23.2621 77.5412C23.1967 77.7094 24.7907 78.2911 24.2787 78.0144L23.8788 77.7813C24.2687 77.9072 24.6512 77.9528 25.3831 78.5604C26.7564 79.6759 32.4936 81.5215 35.627 82.0954C35.6513 82.0662 35.6999 82.0076 35.751 81.9758C35.9068 81.9073 35.9896 81.9267 36.0556 82.0557C36.0874 82.1068 36.0898 82.1335 36.0655 82.1628C36.6673 82.2421 37.157 82.2777 37.4224 82.2261C37.661 82.1769 37.8535 82.2131 37.8853 82.2642C37.9195 82.3421 38.0534 82.3297 38.2092 82.2612C38.365 82.1927 38.4746 82.2096 38.4553 82.2924C38.4359 82.3753 38.5188 82.3946 38.5917 82.3067C38.6914 82.2164 38.9082 82.2234 39.1057 82.3132C39.3031 82.4029 39.4931 82.4123 39.5417 82.3537C39.5878 82.2684 39.7511 82.2803 39.9436 82.3164C40.3603 82.4399 42.2137 82.3221 42.2791 82.1539C42.3009 82.0978 42.5396 82.0486 42.8099 82.0506C43.3264 82.0837 46.1997 81.6011 47.7311 81.2159C48.7609 80.9582 54.3004 78.6341 53.9715 78.5836C53.6987 78.5548 54.6719 77.9783 54.7404 78.134C54.8064 78.263 55.2226 78.0893 55.1273 77.936C55.0563 77.7534 55.3411 77.619 55.3099 77.865C55.2836 78.1647 55.541 77.7355 55.9036 77.5668C56.0862 77.4958 56.0812 77.4423 55.8912 77.4329C55.6452 77.4016 55.9467 77.1575 56.9661 76.4955C57.3481 76.244 57.4552 76.234 57.4165 76.3997C57.4047 76.563 57.4314 76.5605 57.5798 76.4116C57.9275 76.0822 58.3804 76.0131 57.8932 76.0043C57.4085 76.0222 57.8615 75.9532 58.2067 75.5969C58.3307 75.4774 58.3843 75.4724 58.3699 75.6088C58.3412 75.8816 58.7817 75.6787 58.679 75.445C58.5445 75.1603 59.676 74.542 59.8853 74.4685C60.1214 74.3926 61.3883 73.1944 61.5266 72.9384C61.6139 72.7141 62.1834 72.4451 62.2519 72.6009C62.2836 72.652 62.3184 73.027 62.3532 73.4021C62.3954 73.8575 62.5473 74.3297 62.8039 74.7653C63.0287 75.1497 63.1413 75.4905 63.1195 75.5466C63.0491 75.6612 63.7817 78.0249 64.0725 78.5383C64.1385 78.6673 64.2219 78.9838 64.2418 79.1981C64.3019 80.1382 67.4776 90.4892 67.5013 92.7837C67.5162 92.9444 67.5579 93.1026 67.6432 93.1487C67.7286 93.1949 67.7385 93.302 67.6924 93.3873C67.549 93.5898 67.9599 94.5244 67.9174 95.2308C67.8748 95.9373 68.5686 97.0077 68.3225 96.9765C68.1032 96.9428 68.3559 97.9191 68.4194 98.0213C68.5415 98.1721 68.8687 99.952 68.7739 100.096C68.7253 100.154 68.777 100.42 68.8797 100.653C68.9849 100.914 69.0172 101.262 68.9542 101.457C68.8938 101.679 68.9136 101.893 69.0332 102.017C69.1821 102.166 69.187 102.219 69.0213 102.18C68.8581 102.169 68.8631 102.222 69.0437 102.422C69.1657 102.572 69.2025 102.677 69.1196 102.658C68.9271 102.621 69.1949 105.217 69.4048 105.441C69.4951 105.541 69.5001 105.594 69.4173 105.575C69.3344 105.556 69.2665 105.697 69.3106 105.882C69.3946 106.496 69.5781 109.64 69.7935 110.215L69.938 110.606L70.0346 110.192C70.402 108.618 70.3524 112.162 70.2235 112.228C70.1724 112.26 70.1114 112.184 70.1014 112.077C70.0879 111.349 70.0586 111.325 69.8518 111.425C69.6692 111.496 69.6598 111.686 69.8186 111.941C69.8504 111.993 69.8068 112.105 69.7046 112.168C69.5806 112.288 69.395 112.035 68.8719 111.057C67.3003 108.095 65.196 105.507 63.9309 104.976C63.5945 104.845 63.1043 104.513 62.8676 104.291C62.6309 104.07 62.3725 103.905 62.3214 103.937C62.1706 104.059 61.0065 102.87 60.8632 103.072C60.8171 103.158 60.8563 103.289 60.9466 103.389C61.3614 103.783 62.001 104.561 61.9231 104.595C61.8963 104.597 61.7232 104.479 61.5425 104.279C61.1228 103.832 60.9159 103.932 61.1774 104.421C61.4047 104.832 61.242 105.118 60.9905 104.736C60.7731 104.432 60.4442 104.381 60.4155 104.654C60.4011 104.79 60.2865 104.72 60.1277 104.464C59.8493 104.085 59.3622 104.076 59.6138 104.458C59.8336 104.789 59.1951 104.605 59.2691 105.111C59.284 105.272 59.2428 105.411 59.1868 105.389C59.1039 105.37 59.036 105.511 59.0241 105.674C58.9929 105.921 58.9418 105.952 58.7736 105.887C58.6054 105.821 58.5032 105.885 58.3455 106.224C58.2583 106.448 58.2052 106.75 58.2419 106.855C58.3129 107.037 58.3129 107.037 58.113 106.921C57.9398 106.802 57.913 106.804 57.9061 107.021C57.9185 107.155 58.0044 107.498 58.1121 107.786C58.2198 108.073 58.269 108.311 58.1911 108.346C58.14 108.377 58.1549 108.538 58.2234 108.694C58.3579 108.979 58.3311 108.981 58.1237 108.784C58.0041 108.66 57.9088 108.507 57.9014 108.427C57.9207 108.344 57.8646 108.322 57.7868 108.356C57.631 108.425 57.8077 109.165 58.0543 109.493C58.1764 109.644 58.1988 109.885 58.1333 110.053C58.0679 110.221 58.0584 110.411 58.1145 110.433C58.3169 110.577 60.6866 115.734 60.9987 115.894C61.1133 115.964 61.1475 116.042 61.1014 116.127C61.0067 116.271 63.8712 122.977 64.0121 122.747C64.1286 122.547 64.3291 122.961 64.1808 123.11C64.0568 123.229 65.6281 127.353 65.9962 127.535C66.1669 127.627 66.2304 127.729 66.1625 127.871C66.0777 128.122 66.8465 130.293 67.1679 130.263C67.3287 130.248 67.3604 130.299 67.2731 130.524C67.1522 130.967 69.6514 136.355 69.9248 136.681C70.0786 136.883 70.3589 136.992 70.5757 136.999C71.3283 136.956 70.9131 137.724 71.7635 137.862C72.0095 137.893 72.2095 138.009 72.2194 138.116C72.2418 138.358 72.9101 138.863 73.1219 138.816C73.6309 138.769 73.8303 138.588 73.9637 138.279ZM33.1371 79.1381C33.1421 79.1917 33.1739 79.2427 33.2542 79.2353C33.3907 79.2497 33.3788 79.4129 33.2398 79.3717C33.0498 79.3623 33.1893 79.7007 32.7944 79.5211C32.7408 79.5261 32.714 79.5286 32.658 79.5068C32.5994 79.4582 32.5944 79.4046 32.6187 79.3753C32.6163 79.3485 32.6163 79.3485 32.643 79.346C32.7085 79.1778 32.9079 78.9972 32.8176 78.8975C32.4738 78.6863 33.3117 78.6896 33.1371 79.1381ZM2.19789 42.9921C2.07583 42.8413 2.10011 42.8121 2.29011 42.8215C2.6994 42.8646 2.3785 43.1915 2.19789 42.9921ZM2.62022 50.1671C2.78289 49.8818 2.49069 49.9359 2.60475 49.7092C2.7213 49.5092 2.91875 49.599 2.80468 49.8257C2.69062 50.0524 3.09495 50.042 2.93228 50.3273C2.7696 50.6126 2.45754 50.4524 2.62022 50.1671ZM6.03067 58.3888C5.86745 58.3769 5.86249 58.3234 5.95474 58.1527C6.1442 57.8649 6.38886 58.4636 6.03067 58.3888ZM11.3595 63.4065C10.921 63.3391 11.2601 62.3349 11.3698 62.3517C11.5623 62.3879 11.3629 62.5685 11.6114 62.6266C11.6139 62.6533 11.794 62.5555 11.7048 63.0502C11.6567 63.4059 11.6056 63.4377 11.3595 63.4065ZM11.3468 64.4343C11.3051 64.2761 11.1132 64.5371 11.0055 64.2499C11.0322 64.2474 10.8541 64.0748 11.1413 63.9671C11.5868 63.8177 11.4888 64.7994 11.3468 64.4343ZM15.0803 66.817C15.3501 66.5218 15.4404 66.6214 15.1706 66.9167C14.9008 67.2119 14.8105 67.1122 15.0803 66.817ZM17.8732 68.9626C17.951 68.9284 18.0458 68.7845 18.0844 68.6188C18.1668 68.341 18.5998 68.0577 18.6732 68.267C18.7125 68.3985 18.2233 68.66 18.3628 68.9983C18.5047 69.3634 17.3791 69.1706 17.8732 68.9626ZM21.7284 72.6579C21.8673 72.6991 21.9259 72.7477 21.8822 72.8598C21.8217 73.0816 21.6168 72.9114 21.5781 73.0771C21.4839 73.5182 21.2874 72.5637 21.7284 72.6579ZM24.0316 74.768C23.8877 74.6732 24.1164 74.5169 24.0018 74.4465C23.9164 74.4004 23.9794 74.2054 24.2111 74.3731C24.4721 74.565 24.1462 74.8384 24.0316 74.768ZM24.6035 77.1466C24.7076 76.8127 24.8197 76.8564 24.7156 77.1903C24.609 77.4974 24.4969 77.4537 24.6035 77.1466ZM31.6257 77.1168C31.7983 76.9386 31.9228 77.1162 31.8231 77.2065C31.7259 77.3236 31.8649 77.3647 31.7895 77.4258C31.7676 77.4818 31.4313 77.3509 31.6257 77.1168ZM50.8142 74.2562C50.1768 74.6666 46.6354 76.1028 45.9706 76.2185C45.7588 76.2651 45.4155 76.351 45.2062 76.4245C44.9968 76.4979 44.8093 76.5153 44.7776 76.4642C44.7458 76.4131 44.59 76.4817 44.4392 76.6037C44.2349 76.7308 44.1009 76.7432 44.0642 76.6385C44.0275 76.5338 43.9203 76.5438 43.8206 76.6341C43.7209 76.7244 43.5895 76.7636 43.5309 76.715C43.3285 76.5716 42.1752 77.246 42.2064 77C42.2232 76.8903 42.1429 76.8978 42.0456 77.0149C41.9459 77.1052 41.8388 77.1151 41.8045 77.0372C41.7703 76.9594 41.6875 76.94 41.6413 77.0253C41.5223 77.1985 40.6358 77.2537 40.2726 77.1253C40.1337 77.0841 39.9487 77.1283 39.849 77.2186C39.725 77.3382 39.6714 77.3431 39.6858 77.2067C39.6976 77.0435 39.5344 77.0316 39.2036 77.2514C39.1525 77.2832 39.0696 77.2639 38.9843 77.2178C38.8404 77.123 37.7296 77.091 37.5739 77.1594C37.4692 77.1962 36.865 77.0901 35.7661 76.8948C35.771 76.9484 35.7492 77.0044 35.6981 77.0362C35.5399 77.0779 35.6862 77.1995 35.5816 77.2362C35.528 77.2412 35.2863 76.9663 35.5468 76.8611C35.3007 76.8299 35.0254 76.7744 34.7232 76.7213C31.3487 76.1697 26.3586 73.9307 23.1634 71.5251C19.5901 68.8304 19.4695 68.1121 18.826 67.8745C18.6017 67.7873 18.4529 67.639 18.4405 67.505C18.4131 67.2103 17.5151 66.2669 17.3325 66.3379C17.2546 66.3721 17.2229 66.3211 17.2154 66.2407C17.2491 66.0214 16.3466 65.3216 16.2707 65.0854C16.2339 64.9808 16.1754 64.9322 16.0975 64.9664C15.9149 65.0374 15.3096 64.337 14.5181 63.0865C14.4888 63.0621 14.3985 62.9624 14.2839 62.892C14.0522 62.7244 13.5902 61.8215 13.1754 61.4277C12.8167 61.0557 12.5502 60.513 11.8882 59.4937C11.8932 59.5473 11.8421 59.579 11.7618 59.5865C11.5985 59.5746 11.667 59.7303 11.5842 59.711C11.5306 59.716 11.4155 59.3484 11.7151 59.3746C11.7687 59.3697 11.798 59.394 11.8272 59.4183C11.793 59.3404 11.732 59.265 11.6709 59.1896C10.2885 57.1023 7.57744 51.7607 7.00253 49.0581C6.65598 47.361 6.47956 45.459 6.59199 44.3408C6.6326 43.9047 6.81601 42.9691 6.96571 42.2527C7.18088 41.3681 7.44025 40.6686 7.87026 40.0613C8.20307 39.5711 8.51651 39.1638 8.5676 39.132C8.72088 39.0367 8.76703 38.9514 8.9714 38.8244C9.22686 38.6656 9.52044 38.0439 9.62317 38.2776C9.69166 38.4333 10.2001 38.0889 10.2288 37.8161C10.2675 37.6504 13.0668 36.6612 14.0723 36.4328C14.9489 36.2705 16.6098 36.1164 16.8316 36.1769C17.0826 36.2617 17.6178 35.9149 17.6888 36.0974C17.7231 36.1753 17.8595 36.1896 18.0152 36.1212C18.171 36.0527 18.3075 36.0671 18.3417 36.145C18.3759 36.2229 18.4856 36.2397 18.561 36.1787C18.7628 36.0248 20.4997 36.1069 20.8385 36.2646C20.9799 36.3325 21.1457 36.3712 21.1968 36.3395C21.3525 36.271 23.1291 36.7816 23.4406 36.6447C23.7789 36.5052 24.0598 36.9115 24.798 37.0051C25.3169 37.0651 30.4081 38.6463 34.1971 40.7536C35.621 41.5402 35.299 41.2728 35.9648 41.7514C36.2526 41.9409 36.6525 42.174 36.8743 42.2345C37.2642 42.3605 37.291 42.358 37.0811 42.1343C36.3904 41.3878 41.5821 44.6348 43.6823 46.3044C44.0922 46.6446 44.5823 46.9774 44.7237 47.0454C45.0919 47.2274 47.1217 49.0115 47.2244 49.2452C47.2611 49.3498 47.3782 49.447 47.4611 49.4664C47.5439 49.4857 48.5591 50.5264 49.7038 51.7982C52.413 54.7892 52.3171 54.3388 52.7524 55.2441C53.2561 56.3051 53.2649 55.8179 53.8683 56.7887C54.3789 57.633 54.4737 57.4891 54.767 58.0293C55.6175 59.6256 55.9961 60.2119 56.2229 60.326C56.3935 60.4183 56.4228 60.4425 56.2864 60.4282C56.0135 60.3994 55.9679 60.7819 56.2551 60.6742C56.4109 60.6057 56.5305 60.7298 56.7042 61.146C56.8779 61.5622 56.8878 61.6693 56.7439 61.5745C56.544 61.458 56.544 61.458 56.6175 61.6673C56.6835 61.7963 56.7981 61.8667 56.8492 61.835C56.927 61.8007 56.9856 61.8494 56.9663 61.9322C56.9469 62.0151 57.0347 62.0879 57.1687 62.0755C57.4926 62.0725 57.528 62.7447 57.4064 62.8911C57.3603 62.9764 57.397 63.0811 57.5117 63.1515C57.8312 63.3921 58.0352 64.4269 58.1051 64.0151C58.1438 63.8494 58.3076 64.1584 58.5939 64.9154C59.1349 66.3783 59.194 66.7242 59.3498 66.6557C59.4276 66.6214 59.4669 66.7529 59.4332 66.9722C59.4144 67.3522 58.464 68.467 57.0246 69.8434C55.534 71.2516 54.6972 71.8426 50.8142 74.2562ZM67.685 90.6861C67.1926 89.1646 67.6113 89.0178 67.8214 90.7005L67.9203 91.4748L67.685 90.6861Z" fill="#52f9a7"/>
</svg>
